# xmcd
#
# Track frame offsets:
#	150
#	9980
#	22650
#	36280
#	46440
#	54563
#	66083
#	76888
#	85838
#	99855
#	109365
#	122585
#	134090
#	147678
#
# Disc length: 2115 seconds
#
# Revision: 0
# Processed by: cddbd v1.4PL0 Copyright (c) Steve Scherf et al.
# Submitted via: EasyCDDAExtractor 4.6.9.1
#
DISCID=b808410e
DTITLE=Willie Nelson - Gold
DYEAR=1900
DGENRE=Country
TTITLE0=Let's Pretend
TTITLE1=Any Old Arms Won't Do
TTITLE2=You'll Alwyas Have Someone
TTITLE3=Pride Wins Again
TTITLE4=Things To Remember
TTITLE5=Touch Me
TTITLE6=I Feel Sorry For Him
TTITLE7=Why Are You Picking On Me
TTITLE8=Will You Remember Mine
TTITLE9=I'm Building Heartaches
TTITLE10=I Just Don't Understand
TTITLE11=Suffering In Silence
TTITLE12=The Last Letter
TTITLE13=Go Away
EXTD=Gold 032
EXTT0=(Nelson)
EXTT1=(Nelson)
EXTT2=(Nelson)
EXTT3=(Nelson)
EXTT4=(Nelson)
EXTT5=(Nelson)
EXTT6=(Nelson)
EXTT7=(Nelson)
EXTT8=(Nelson)
EXTT9=(Nelson)
EXTT10=(Nelson)
EXTT11=(Nelson)
EXTT12=(Nelson)
EXTT13=(Nelson)
PLAYORDER=
